<svg width="30" height="30" viewBox="0 0 30 30" fill="none" xmlns="http://www.w3.org/2000/svg">
<rect width="30" height="30" rx="15" fill="#F5E000"/>
<path d="M12.5034 15.0384C12.5034 13.6565 13.623 12.536 15.0045 12.536C16.386 12.536 17.5062 13.6565 17.5062 15.0384C17.5062 16.4203 16.386 17.5409 15.0045 17.5409C13.623 17.5409 12.5034 16.4203 12.5034 15.0384ZM11.151 15.0384C11.151 17.1673 12.8762 18.893 15.0045 18.893C17.1328 18.893 18.858 17.1673 18.858 15.0384C18.858 12.9095 17.1328 11.1839 15.0045 11.1839C12.8762 11.1839 11.151 12.9095 11.151 15.0384ZM18.11 11.031C18.1099 11.2092 18.1627 11.3834 18.2615 11.5315C18.3604 11.6797 18.501 11.7952 18.6656 11.8635C18.8301 11.9317 19.0112 11.9496 19.1859 11.9149C19.3606 11.8803 19.5211 11.7945 19.647 11.6686C19.773 11.5427 19.8589 11.3822 19.8937 11.2075C19.9285 11.0327 19.9107 10.8516 19.8426 10.687C19.7746 10.5224 19.6592 10.3816 19.5111 10.2826C19.3631 10.1835 19.189 10.1306 19.0109 10.1306H19.0105C18.7718 10.1307 18.5428 10.2256 18.374 10.3944C18.2051 10.5632 18.1102 10.7922 18.11 11.031V11.031ZM11.9727 21.1487C11.241 21.1154 10.8433 20.9934 10.5791 20.8905C10.2287 20.754 9.97871 20.5915 9.71587 20.329C9.45303 20.0664 9.29033 19.8166 9.15453 19.4661C9.05151 19.2019 8.92964 18.804 8.89638 18.0721C8.86 17.2808 8.85273 17.0431 8.85273 15.0385C8.85273 13.0339 8.8606 12.7968 8.89638 12.0049C8.9297 11.273 9.05247 10.8759 9.15453 10.6109C9.29093 10.2604 9.45339 10.0104 9.71587 9.74744C9.97835 9.48452 10.2281 9.32178 10.5791 9.18594C10.8432 9.08289 11.241 8.96098 11.9727 8.92771C12.7637 8.89132 13.0013 8.88405 15.0045 8.88405C17.0077 8.88405 17.2455 8.89192 18.0372 8.92771C18.7689 8.96104 19.1659 9.08385 19.4308 9.18594C19.7812 9.32178 20.0312 9.48488 20.294 9.74744C20.5569 10.01 20.719 10.2604 20.8554 10.6109C20.9584 10.8751 21.0803 11.273 21.1135 12.0049C21.1499 12.7968 21.1572 13.0339 21.1572 15.0385C21.1572 17.0431 21.1499 17.2802 21.1135 18.0721C21.0802 18.804 20.9577 19.2018 20.8554 19.4661C20.719 19.8166 20.5565 20.0666 20.294 20.329C20.0316 20.5913 19.7812 20.754 19.4308 20.8905C19.1667 20.9935 18.7689 21.1154 18.0372 21.1487C17.2462 21.1851 17.0086 21.1923 15.0045 21.1923C13.0004 21.1923 12.7635 21.1851 11.9727 21.1487V21.1487ZM11.9105 7.57723C11.1116 7.61362 10.5657 7.74033 10.089 7.9259C9.59526 8.11753 9.17729 8.37462 8.75962 8.79175C8.34194 9.20888 8.08559 9.62763 7.89402 10.1215C7.70851 10.5987 7.58183 11.1445 7.54545 11.9436C7.50847 12.744 7.5 12.9999 7.5 15.0384C7.5 17.077 7.50847 17.3329 7.54545 18.1333C7.58183 18.9325 7.70851 19.4782 7.89402 19.9554C8.08559 20.4489 8.342 20.8682 8.75962 21.2851C9.17723 21.7021 9.59526 21.9588 10.089 22.151C10.5666 22.3365 11.1116 22.4633 11.9105 22.4996C12.7111 22.536 12.9665 22.5451 15.0045 22.5451C17.0425 22.5451 17.2983 22.5366 18.0985 22.4996C18.8974 22.4633 19.443 22.3365 19.92 22.151C20.4134 21.9588 20.8317 21.7023 21.2494 21.2851C21.6671 20.868 21.9229 20.4489 22.115 19.9554C22.3005 19.4782 22.4278 18.9324 22.4636 18.1333C22.4999 17.3323 22.5084 17.077 22.5084 15.0384C22.5084 12.9999 22.4999 12.744 22.4636 11.9436C22.4272 11.1444 22.3005 10.5984 22.115 10.1215C21.9229 9.62793 21.6664 9.20954 21.2494 8.79175C20.8324 8.37396 20.4134 8.11753 19.9206 7.9259C19.443 7.74033 18.8974 7.61302 18.0991 7.57723C17.2989 7.54084 17.0431 7.53177 15.0051 7.53177C12.9671 7.53177 12.7111 7.54024 11.9105 7.57723Z" fill="#1F0943"/>
</svg>
