<svg width="30" height="30" viewBox="0 0 30 30" fill="none" xmlns="http://www.w3.org/2000/svg">
<rect width="30" height="30" rx="15" fill="#F5E000"/>
<path d="M8.34605 14.4686C8.34605 14.4686 14.4495 11.898 16.5662 10.9928C17.3777 10.6307 20.1295 9.47209 20.1295 9.47209C20.1295 9.47209 21.3996 8.96522 21.2937 10.1962C21.2584 10.7031 20.9762 12.4772 20.694 14.3962C20.2706 17.1117 19.812 20.0807 19.812 20.0807C19.812 20.0807 19.7414 20.9134 19.1417 21.0583C18.5419 21.2031 17.5541 20.5514 17.3777 20.4065C17.2365 20.2979 14.7317 18.6686 13.8144 17.8721C13.5674 17.6548 13.2852 17.2204 13.8497 16.7135C15.1198 15.5186 16.6368 14.0342 17.554 13.0928C17.9774 12.6583 18.4008 11.6445 16.6368 12.8755C14.1319 14.6497 11.6624 16.3152 11.6624 16.3152C11.6624 16.3152 11.0979 16.6772 10.0395 16.3514C8.98105 16.0255 7.74626 15.591 7.74626 15.591C7.74626 15.591 6.89959 15.0479 8.34605 14.4686Z" fill="#1F0943"/>
</svg>
