<svg width="30" height="30" viewBox="0 0 30 30" fill="none" xmlns="http://www.w3.org/2000/svg">
<rect width="30" height="30" rx="15" fill="#F5E000"/>
<path fill-rule="evenodd" clip-rule="evenodd" d="M23.7535 10.6805C23.8803 10.2839 23.7535 9.99246 23.1501 9.99246H21.1549C20.6476 9.99246 20.4137 10.2442 20.2868 10.5218C20.2868 10.5218 19.2722 12.8418 17.8348 14.3488C17.3698 14.785 17.1584 14.9238 16.9047 14.9238C16.7779 14.9238 16.5943 14.785 16.5943 14.3885V10.6805C16.5943 10.2046 16.4471 9.99246 16.0243 9.99246H12.8889C12.5719 9.99246 12.3812 10.2133 12.3812 10.4227C12.3812 10.8738 13.0999 10.9779 13.1739 12.2469V15.0032C13.1739 15.6074 13.0576 15.717 12.8039 15.717C12.1275 15.717 10.4822 13.3866 9.50638 10.7201C9.31514 10.2018 9.12333 9.99246 8.6134 9.99246H6.61817C6.0481 9.99246 5.93408 10.2442 5.93408 10.5218C5.93408 11.0175 6.61051 13.4763 9.08365 16.7283C10.7324 18.9491 13.0554 20.1529 15.1692 20.1529C16.4374 20.1529 16.5943 19.8855 16.5943 19.425V17.7465C16.5943 17.2117 16.7145 17.105 17.1161 17.105C17.412 17.105 17.9193 17.2438 19.1031 18.3146C20.4559 19.5836 20.679 20.1529 21.4399 20.1529H23.4351C24.0052 20.1529 24.2902 19.8855 24.1258 19.3579C23.9459 18.832 23.3 18.069 22.4429 17.1645C21.9779 16.6489 21.2803 16.0937 21.0689 15.8161C20.773 15.4592 20.8575 15.3005 21.0689 14.9833C21.0689 14.9833 23.4998 11.771 23.7535 10.6805Z" fill="#1F0943"/>
</svg>
