<svg width="353" height="353" viewBox="0 0 353 353" fill="none" xmlns="http://www.w3.org/2000/svg">
<g filter="url(#filter0_f_33_103)">
<ellipse cx="176.465" cy="176.225" rx="56.4488" ry="56.2247" fill="#D5BD32"/>
</g>
<path fill-rule="evenodd" clip-rule="evenodd" d="M189.933 164.58C189.829 169.517 189.598 170.425 188.056 171.959C186.535 173.472 185.951 173.618 180.815 173.768C176.255 173.902 176.021 173.936 176.021 174.47C176.021 175.003 176.255 175.038 180.815 175.171C185.195 175.299 185.707 175.368 186.737 175.969C189.324 177.478 189.98 179.317 189.98 185.052C189.98 188.303 190.048 188.919 190.403 188.919C190.761 188.919 190.827 188.256 190.828 184.64C190.83 179.794 191.056 178.656 192.296 177.251C193.979 175.344 194.92 175.064 200.063 174.942C203.568 174.859 204.645 174.748 204.645 174.47C204.645 174.192 203.568 174.081 200.063 173.998C194.92 173.875 193.979 173.595 192.296 171.688C191.056 170.283 190.83 169.146 190.828 164.299C190.827 160.799 190.754 160.02 190.428 160.02C190.104 160.02 190.011 160.882 189.933 164.58ZM109.464 161.729C106.995 162.54 104.092 162.726 102.732 162.159C102.131 161.909 101.541 161.704 101.42 161.704C101.3 161.704 101.509 162.609 101.885 163.714C103.915 169.683 103.914 178.757 101.883 184.781C101.1 187.102 101.178 187.177 103.836 186.651C105.297 186.362 106.019 186.356 107.307 186.621C109.222 187.014 110.169 187.047 110.169 186.719C110.169 186.589 109.918 185.755 109.611 184.867C108.834 182.621 108.195 179.081 108.197 177.034L108.198 175.311L111.257 174.4C117.588 172.512 118.301 173.483 114.694 179.081C112.33 182.748 112.113 184.612 113.856 186.273C114.628 187.009 114.939 187.103 116.895 187.191C118.093 187.245 119.616 187.144 120.28 186.966L121.487 186.643L120.497 185.553C118.818 183.703 118.824 182.217 120.528 178.544C121.77 175.866 122.088 173.226 121.278 172.322C120.985 171.995 120.329 171.552 119.82 171.337L118.895 170.948L119.632 169.986C121.133 168.029 121.574 165.035 120.597 163.44C119.056 160.926 114.315 161.408 112.849 164.228C112.372 165.146 112.373 165.147 113.886 165.078C116.714 165.078 116.739 166.957 115.536 168.92C114.555 170.52 111.733 172.152 108.894 172.761L108.042 172.943L108.241 170.049C108.499 166.294 109.252 164.211 110.912 162.652C111.589 162.016 112.144 161.946 112.144 161.319C112.144 161.012 111.212 161.155 109.464 161.729ZM133.154 162.047C129.709 163.266 126.087 168.472 124.109 175.045C122.281 181.12 123.702 187.13 126.944 187.039C127.942 187.01 131.89 185.622 132.195 185.192C132.288 185.061 131.882 183.999 131.293 182.831C130.22 180.706 129.347 177.648 129.347 176.013C129.347 175.274 129.506 175.075 130.404 174.695C131.636 174.173 133.81 173.906 134.801 174.153L135.492 174.326L134.8 176.494C133.393 180.903 133.706 184.341 135.67 186.057C137.152 187.351 138.07 187.432 140.14 186.45C143.068 185.06 143.069 185.059 142.248 183.429C141.233 181.415 140.937 179.79 140.642 174.61C140.187 166.634 138.724 162.809 135.81 161.978C134.652 161.647 134.255 161.658 133.154 162.047ZM145.4 162.286C145.078 162.607 144.876 163.029 144.951 163.224C145.026 163.42 145.252 164.548 145.451 165.73C145.787 167.717 145.754 168.305 145.017 173.42C144.579 176.467 144.164 180.032 144.094 181.344C143.983 183.439 144.048 183.882 144.624 184.989C145.149 185.996 145.551 186.36 146.627 186.798C147.828 187.286 148.204 187.313 150.098 187.041C151.266 186.874 152.304 186.654 152.405 186.554C152.506 186.454 152.365 186.029 152.09 185.611C151.148 184.173 150.456 182.428 149.788 179.807C148.598 175.142 147.632 166.97 148.066 165.248C148.306 164.297 149.2 164.271 149.81 165.197C151.086 167.135 152.628 174.024 153.33 180.923C153.715 184.706 154.184 185.734 155.933 186.629C157.653 187.51 159.17 187.287 160.505 185.959C161.555 184.914 161.814 183.969 162.346 179.239C163.005 173.374 164.79 166.255 165.911 165.023C167.176 163.633 167.569 164.789 167.318 169.162C166.972 175.194 165.256 182.57 163.63 185.014C163.232 185.612 162.907 186.217 162.907 186.358C162.907 186.765 163.744 186.989 165.885 187.155C168.395 187.349 170.206 186.665 170.995 185.226C171.712 183.919 171.616 180.757 170.669 174.47C169.922 169.511 169.856 166.845 170.401 163.643C170.695 161.916 170.22 161.704 166.055 161.704C161.713 161.704 160.891 162.022 159.815 164.119C159.037 165.637 158.995 166.654 159.26 177.416C159.349 180.999 159.282 182.604 159.015 183.355C158.367 185.173 157.433 185.4 156.67 183.924C156.361 183.326 156.279 181.289 156.279 174.189C156.279 174.189 156.62 166.856 156.279 165.211C156.055 164.19 155.477 163.224 154.786 162.787C154.282 162.468 153.594 161.705 149.44 161.704C146.318 161.704 145.929 161.76 145.4 162.286ZM210.766 162.157C210.021 162.384 209.339 162.761 209.249 162.994C209.159 163.228 209.409 164.011 209.805 164.736C210.201 165.46 210.68 166.684 210.87 167.455C211.678 170.742 212.618 171.681 216.469 173.056C218.399 173.745 218.887 174.032 218.887 174.475C218.887 174.916 218.45 175.179 216.772 175.746C215.609 176.14 214.26 176.672 213.774 176.929C212.658 177.519 211.464 178.918 211.244 179.892C210.72 182.216 210.456 183 209.84 184.059C209.464 184.704 209.158 185.416 209.158 185.642C209.158 186.704 213.796 187.621 215.287 186.853C216.529 186.215 217.53 184.001 217.886 181.103C218.057 179.708 218.397 178.399 218.724 177.872C219.262 177.006 220.746 175.732 221.216 175.732C221.346 175.732 221.976 176.233 222.615 176.844C223.576 177.763 223.83 178.237 224.078 179.579C224.243 180.473 224.499 181.864 224.648 182.67C225.194 185.633 226.542 187.232 228.495 187.235C229.635 187.236 232.318 186.448 232.823 185.963C233.166 185.634 233.1 185.351 232.354 183.953C231.876 183.058 231.393 181.821 231.282 181.203C230.771 178.38 229.089 176.791 225.479 175.722C222.397 174.809 222.408 174.053 225.515 173.069C229.191 171.904 230.499 170.706 231.246 167.815C231.474 166.933 231.991 165.622 232.395 164.904C232.799 164.185 233.129 163.445 233.129 163.259C233.129 162.587 230.468 161.708 228.427 161.705C226.136 161.702 224.88 163.545 224.36 167.673C224.204 168.91 223.899 170.263 223.682 170.681C223.285 171.445 221.439 173.217 221.063 173.196C220.718 173.176 219.136 171.7 218.647 170.94C218.39 170.543 218.053 169.217 217.898 167.994C217.299 163.281 216.201 161.688 213.578 161.723C212.775 161.734 211.51 161.929 210.766 162.157ZM135.492 166.271C136.199 167.019 136.836 169.462 136.584 170.458C136.421 171.106 136.314 171.142 134.916 171.027C134.01 170.952 132.821 171.081 131.897 171.354C131.058 171.602 130.274 171.804 130.154 171.804C129.796 171.804 130.707 169.545 131.663 168.063C132.489 166.783 133.765 165.736 134.481 165.733C134.904 165.733 135.16 165.919 135.492 166.271ZM138.134 203.032C138.085 205.411 137.635 206.64 136.606 207.206C136.258 207.397 134.895 207.634 133.577 207.731L131.18 207.909L133.252 207.954C137.049 208.035 138.059 209.014 138.134 212.684L138.179 214.872L138.353 212.415C138.514 210.128 138.589 209.896 139.434 209.056C140.283 208.211 140.502 208.142 142.811 207.995L145.281 207.838L142.818 207.708C140.495 207.585 140.304 207.526 139.441 206.667C138.588 205.818 138.515 205.592 138.353 203.3L138.179 200.844L138.134 203.032Z" fill="white"/>
<path fill-rule="evenodd" clip-rule="evenodd" d="M133.013 120.188C119.867 121.783 108.456 127.373 99.4254 136.642C83.5179 152.968 79.4964 177.308 89.3145 197.837C96.083 211.989 108.668 222.596 123.847 226.94C142.777 232.357 163.729 226.892 177.739 212.881C182.427 208.193 186.896 201.578 189.284 195.793C189.857 194.404 190.382 193.175 190.45 193.06C190.518 192.946 191.324 193.842 192.24 195.052C198.192 202.91 207.409 207.646 217.759 208.165C234.271 208.994 248.904 197.55 252.486 181.006C253.179 177.804 253.17 171.168 252.467 167.876C251.898 165.21 250.605 161.384 249.614 159.436C248.269 156.79 245.403 152.896 243.166 150.674C231.319 138.902 213.04 137.406 199.287 147.083C196.955 148.724 193.547 152.067 191.848 154.379L190.531 156.173L190.052 154.94C189.174 152.679 186.408 147.266 185.046 145.143C176.725 132.175 163.395 123.394 147.96 120.709C144.235 120.062 136.326 119.786 133.013 120.188ZM144.717 120.753C157.068 122.155 168.442 127.621 177.176 136.35C182.566 141.737 186.331 147.409 189.159 154.4C189.753 155.866 190.339 157.095 190.462 157.131C190.585 157.166 191.221 156.404 191.876 155.438C199.964 143.499 215.791 138.291 229.863 142.938C241.439 146.76 250.204 157.051 252.173 169.132C255.572 189.978 238.806 208.658 217.618 207.635C211.234 207.326 205.849 205.533 200.279 201.861C197.77 200.207 193.578 196.065 191.947 193.628C191.253 192.592 190.587 191.772 190.467 191.807C190.348 191.841 189.701 193.209 189.03 194.847C180.389 215.941 159.648 229.231 136.679 228.392C110.118 227.422 88.4005 207.652 84.8998 181.258C84.5645 178.729 84.4847 176.556 84.5938 172.927C84.8493 164.42 86.509 157.721 90.1798 150.378C97.2505 136.234 110.271 125.856 125.78 122.004C131.411 120.606 139.005 120.104 144.717 120.753Z" fill="#F5E000" stroke="#F5E000"/>
<defs>
<filter id="filter0_f_33_103" x="0.0163879" y="0" width="352.898" height="352.449" filterUnits="userSpaceOnUse" color-interpolation-filters="sRGB">
<feFlood flood-opacity="0" result="BackgroundImageFix"/>
<feBlend mode="normal" in="SourceGraphic" in2="BackgroundImageFix" result="shape"/>
<feGaussianBlur stdDeviation="60" result="effect1_foregroundBlur_33_103"/>
</filter>
</defs>
</svg>
